<svg width="24" height="24" viewBox="0 0 24 24" fill="none" xmlns="http://www.w3.org/2000/svg">
<g clip-path="url(#clip0_26_565)">
<path d="M0 0H24V24H0V0Z" fill="#00ABC2"/>
<path d="M12.9703 13.3085C14.7544 13.3085 16.2007 11.8622 16.2007 10.0781C16.2007 8.29396 14.7544 6.84766 12.9703 6.84766C11.1862 6.84766 9.73987 8.29396 9.73987 10.0781C9.73987 11.8622 11.1862 13.3085 12.9703 13.3085Z" fill="#FFEC2D"/>
<path d="M12.9703 6.40844C13.1623 6.40604 13.2343 6.28604 13.2343 6.14204C13.2343 5.95004 12.9703 5.03564 12.9703 5.03564C12.9703 5.03564 12.7063 5.95004 12.7063 6.14204C12.7063 6.28604 12.7783 6.40844 12.9703 6.40844Z" fill="#FFEC2D"/>
<path d="M16.6399 10.0781C16.6423 10.2701 16.7623 10.3421 16.9063 10.3421C17.0983 10.3421 18.0127 10.0781 18.0127 10.0781C18.0127 10.0781 17.0983 9.81409 16.9063 9.81409C16.7623 9.81409 16.6399 9.88609 16.6399 10.0781Z" fill="#FFEC2D"/>
<path d="M12.9703 13.7477C12.7783 13.7501 12.7063 13.8701 12.7063 14.0141C12.7063 14.2061 12.9703 15.1205 12.9703 15.1205C12.9703 15.1205 13.2343 14.2061 13.2343 14.0141C13.2343 13.8701 13.1623 13.7477 12.9703 13.7477Z" fill="#FFEC2D"/>
<path d="M9.30066 10.078C9.29826 9.88604 9.17826 9.81404 9.03426 9.81404C8.84226 9.81404 7.92786 10.078 7.92786 10.078C7.92786 10.078 8.84226 10.342 9.03426 10.342C9.17826 10.342 9.30066 10.27 9.30066 10.078Z" fill="#FFEC2D"/>
<path d="M14.3746 6.68781C14.5529 6.75907 14.6653 6.67576 14.7204 6.54272C14.7939 6.36533 14.8999 5.41951 14.8999 5.41951C14.8999 5.41951 14.3061 6.16328 14.2326 6.34066C14.1775 6.4737 14.1972 6.61434 14.3746 6.68781Z" fill="#FFEC2D"/>
<path d="M16.3605 11.4824C16.2893 11.6607 16.3726 11.7731 16.5056 11.8282C16.683 11.9017 17.6288 12.0077 17.6288 12.0077C17.6288 12.0077 16.8851 11.4139 16.7077 11.3404C16.5746 11.2853 16.434 11.305 16.3605 11.4824Z" fill="#FFEC2D"/>
<path d="M11.566 13.4683C11.3877 13.3971 11.2752 13.4804 11.2201 13.6134C11.1467 13.7908 11.0406 14.7366 11.0406 14.7366C11.0406 14.7366 11.6345 13.9929 11.7079 13.8155C11.7631 13.6824 11.7434 13.5418 11.566 13.4683Z" fill="#FFEC2D"/>
<path d="M9.58002 8.67378C9.65128 8.49547 9.56797 8.38303 9.43493 8.32793C9.25755 8.25445 8.31172 8.14843 8.31172 8.14843C8.31172 8.14843 9.05549 8.74226 9.23287 8.81573C9.36591 8.87084 9.50655 8.85116 9.58002 8.67378Z" fill="#FFEC2D"/>
<path d="M15.565 7.4832C15.7024 7.61727 15.8382 7.58332 15.94 7.4815C16.0758 7.34574 16.5357 6.51248 16.5357 6.51248C16.5357 6.51248 15.7024 6.97238 15.5667 7.10815C15.4648 7.20997 15.4292 7.34743 15.565 7.4832Z" fill="#FFEC2D"/>
<path d="M15.565 12.6729C15.431 12.8103 15.4649 12.9461 15.5667 13.0479C15.7025 13.1837 16.5357 13.6436 16.5357 13.6436C16.5357 13.6436 16.0758 12.8103 15.9401 12.6746C15.8382 12.5727 15.7008 12.5371 15.565 12.6729Z" fill="#FFEC2D"/>
<path d="M10.3755 12.6728C10.238 12.5387 10.1022 12.5727 10.0004 12.6745C9.86466 12.8103 9.40475 13.6435 9.40475 13.6435C9.40475 13.6435 10.238 13.1836 10.3738 13.0479C10.4756 12.946 10.5112 12.8086 10.3755 12.6728Z" fill="#FFEC2D"/>
<path d="M10.3754 7.48326C10.5095 7.3458 10.4755 7.21003 10.3737 7.10821C10.2379 6.97244 9.40469 6.51254 9.40469 6.51254C9.40469 6.51254 9.8646 7.3458 10.0004 7.48156C10.1022 7.58339 10.2396 7.61902 10.3754 7.48326Z" fill="#FFEC2D"/>
<path d="M16.3606 8.67379C16.4363 8.85026 16.5747 8.87086 16.7077 8.81575C16.8851 8.74228 17.6289 8.14845 17.6289 8.14845C17.6289 8.14845 16.683 8.25447 16.5057 8.32794C16.3726 8.38305 16.2871 8.49641 16.3606 8.67379Z" fill="#FFEC2D"/>
<path d="M14.3745 13.4683C14.1981 13.544 14.1775 13.6825 14.2326 13.8155C14.3061 13.9929 14.8999 14.7366 14.8999 14.7366C14.8999 14.7366 14.7939 13.7908 14.7204 13.6134C14.6653 13.4804 14.5519 13.3949 14.3745 13.4683Z" fill="#FFEC2D"/>
<path d="M9.57999 11.4823C9.5043 11.3059 9.36588 11.2853 9.23284 11.3404C9.05546 11.4139 8.31169 12.0077 8.31169 12.0077C8.31169 12.0077 9.25752 11.9017 9.4349 11.8282C9.56794 11.7731 9.65347 11.6597 9.57999 11.4823Z" fill="#FFEC2D"/>
<path d="M11.566 6.68778C11.7425 6.61209 11.7631 6.47367 11.708 6.34063C11.6345 6.16325 11.0407 5.41948 11.0407 5.41948C11.0407 5.41948 11.1467 6.3653 11.2202 6.54269C11.2753 6.67573 11.3886 6.76126 11.566 6.68778Z" fill="#FFEC2D"/>
<path d="M13.6894 6.47958C13.8781 6.51485 13.9722 6.41129 14.0004 6.27008C14.0381 6.0818 13.9583 5.13339 13.9583 5.13339C13.9583 5.13339 13.5203 5.97834 13.4827 6.16662C13.4545 6.30783 13.5011 6.44196 13.6894 6.47958Z" fill="#FFEC2D"/>
<path d="M16.5688 10.7971C16.5335 10.9859 16.6371 11.08 16.7783 11.1082C16.9665 11.1458 17.9149 11.0661 17.9149 11.0661C17.9149 11.0661 17.07 10.6281 16.8817 10.5905C16.7405 10.5622 16.6064 10.6089 16.5688 10.7971Z" fill="#FFEC2D"/>
<path d="M12.2512 13.6765C12.0625 13.6413 11.9683 13.7448 11.9401 13.8861C11.9025 14.0743 11.9822 15.0227 11.9822 15.0227C11.9822 15.0227 12.4203 14.1778 12.4579 13.9895C12.4861 13.8483 12.4395 13.7142 12.2512 13.6765Z" fill="#FFEC2D"/>
<path d="M9.37179 9.35899C9.40706 9.17024 9.3035 9.07612 9.16229 9.04791C8.97401 9.01029 8.02561 9.08999 8.02561 9.08999C8.02561 9.08999 8.87055 9.52805 9.05883 9.56567C9.20004 9.59389 9.33417 9.54727 9.37179 9.35899Z" fill="#FFEC2D"/>
<path d="M15.0117 7.02873C15.1726 7.13354 15.2992 7.07388 15.3793 6.95421C15.4861 6.79467 15.7754 5.88795 15.7754 5.88795C15.7754 5.88795 15.0474 6.50094 14.9405 6.66049C14.8604 6.78015 14.8522 6.92192 15.0117 7.02873Z" fill="#FFEC2D"/>
<path d="M16.0197 12.1195C15.9149 12.2804 15.9746 12.407 16.0942 12.4871C16.2538 12.5939 17.1605 12.8832 17.1605 12.8832C17.1605 12.8832 16.5475 12.1551 16.388 12.0483C16.2683 11.9682 16.1265 11.96 16.0197 12.1195Z" fill="#FFEC2D"/>
<path d="M10.9289 13.1275C10.7681 13.0227 10.6415 13.0824 10.5614 13.202C10.4546 13.3616 10.1653 14.2683 10.1653 14.2683C10.1653 14.2683 10.8933 13.6553 11.0001 13.4958C11.0802 13.3761 11.0885 13.2343 10.9289 13.1275Z" fill="#FFEC2D"/>
<path d="M9.92094 8.03673C10.0258 7.87585 9.96609 7.74926 9.84643 7.66916C9.68688 7.56235 8.78016 7.27305 8.78016 7.27305C8.78016 7.27305 9.39315 8.00111 9.5527 8.10792C9.67236 8.18802 9.81413 8.19628 9.92094 8.03673Z" fill="#FFEC2D"/>
<path d="M16.0232 8.04212C16.1317 8.20052 16.2715 8.19384 16.3913 8.11394C16.551 8.00741 17.1653 7.28043 17.1653 7.28043C17.1653 7.28043 16.2581 7.56814 16.0983 7.67467C15.9785 7.75457 15.9166 7.88238 16.0232 8.04212Z" fill="#FFEC2D"/>
<path d="M15.0063 13.1311C14.8479 13.2396 14.8546 13.3794 14.9345 13.4992C15.041 13.6589 15.768 14.2732 15.768 14.2732C15.768 14.2732 15.4803 13.366 15.3738 13.2062C15.2939 13.0864 15.1661 13.0246 15.0063 13.1311Z" fill="#FFEC2D"/>
<path d="M9.91726 12.1141C9.80873 11.9557 9.66895 11.9624 9.54915 12.0423C9.38941 12.1488 8.77515 12.8758 8.77515 12.8758C8.77515 12.8758 9.68237 12.5881 9.8421 12.4816C9.96191 12.4017 10.0238 12.2739 9.91726 12.1141Z" fill="#FFEC2D"/>
<path d="M10.9342 7.02517C11.0926 6.91664 11.0859 6.77686 11.006 6.65706C10.8995 6.49732 10.1725 5.88306 10.1725 5.88306C10.1725 5.88306 10.4602 6.79028 10.5668 6.95002C10.6467 7.06982 10.7745 7.1317 10.9342 7.02517Z" fill="#FFEC2D"/>
<path d="M16.57 9.36534C16.6096 9.55322 16.7413 9.60054 16.8826 9.57257C17.0709 9.53527 17.9166 9.09869 17.9166 9.09869C17.9166 9.09869 16.9684 9.01733 16.78 9.05462C16.6388 9.08259 16.5327 9.177 16.57 9.36534Z" fill="#FFEC2D"/>
<path d="M13.683 13.6779C13.4951 13.7175 13.4478 13.8492 13.4758 13.9905C13.5131 14.1788 13.9496 15.0245 13.9496 15.0245C13.9496 15.0245 14.031 14.0763 13.9937 13.8879C13.9657 13.7467 13.8713 13.6406 13.683 13.6779Z" fill="#FFEC2D"/>
<path d="M9.37057 10.7909C9.33093 10.603 9.19923 10.5557 9.05797 10.5837C8.86963 10.621 8.02392 11.0576 8.02392 11.0576C8.02392 11.0576 8.97218 11.1389 9.16052 11.1016C9.30178 11.0737 9.40787 10.9793 9.37057 10.7909Z" fill="#FFEC2D"/>
<path d="M12.2576 6.47836C12.4454 6.43871 12.4927 6.30701 12.4648 6.16576C12.4275 5.97741 11.9909 5.13171 11.9909 5.13171C11.9909 5.13171 11.9095 6.07997 11.9468 6.26831C11.9748 6.40957 12.0692 6.51565 12.2576 6.47836Z" fill="#FFEC2D"/>
<path d="M12.8582 15.7199C12.7742 15.8711 12.7238 16.0463 12.6182 16.1831C12.2918 15.8879 11.8214 15.8951 11.4086 15.8783C11.0678 15.8591 10.6982 15.8279 10.4342 15.5855C10.1582 15.3575 9.93023 15.0647 9.62303 14.8799C9.33434 14.8178 9.06302 14.6924 8.82863 14.5127C8.34383 14.1167 8.06543 13.5287 7.59023 13.1207C7.50143 13.0343 7.39343 12.9647 7.29263 12.8903C7.19663 12.9143 7.23983 13.1207 7.12223 13.0151C7.05743 12.9671 6.89663 12.9647 6.88223 13.0295C7.02623 13.2215 7.17263 13.4375 7.19423 13.6823C7.09343 13.6919 6.91823 13.6607 6.87023 13.6967C7.00213 13.8946 7.16786 14.0676 7.35983 14.2079C7.26863 14.2223 7.08863 14.2151 7.05263 14.2511C7.23232 14.4232 7.45416 14.5449 7.69583 14.6039C7.74383 14.6711 7.62143 14.8007 7.72703 14.8583C7.78703 14.8823 7.98863 14.9255 7.84943 14.9951C7.75343 15.0575 7.78943 15.2087 7.91183 15.2039C7.98863 15.2447 8.16143 15.2519 8.17583 15.3239C8.10623 15.3911 7.89503 15.4727 8.07503 15.5399C8.24473 15.6361 8.43461 15.6912 8.62943 15.7007C8.53343 15.7823 8.41343 15.8279 8.31503 15.9047C8.75903 16.1663 9.25103 16.3367 9.74063 16.5047C9.93263 16.5671 10.1318 16.6271 10.3334 16.6655C9.74783 16.6319 9.18143 16.4591 8.64863 16.2215C8.37263 16.1015 8.09663 15.9839 7.81343 15.8807C7.93583 15.8159 8.07983 15.7991 8.20943 15.7439C7.94063 15.6911 7.65023 15.6719 7.41743 15.5279C7.45103 15.4607 7.58543 15.4583 7.66223 15.4247C7.80623 15.3911 7.89263 15.3527 7.69343 15.3383C7.49183 15.2831 7.26143 15.3071 7.08143 15.1871C7.09343 15.1151 7.28063 15.1391 7.35503 15.1079C7.45103 15.0911 7.55663 15.0767 7.63343 15.0119C7.32143 14.8847 6.91343 14.9759 6.66863 14.6999C6.61343 14.5943 6.84383 14.6783 6.90863 14.6615C7.07663 14.6615 7.25663 14.7143 7.41743 14.6471C6.96143 14.4479 6.47423 14.2631 6.12863 13.8935C6.09023 13.8335 5.97503 13.6703 6.06863 13.6511C6.33743 13.6871 6.53183 13.9799 6.82223 13.9343C6.86063 13.8839 6.65423 13.7999 6.60143 13.7255C6.16728 13.3767 5.78857 12.964 5.47823 12.5015C5.45903 12.3407 5.70623 12.3167 5.77103 12.4391C6.09263 12.7511 6.38303 13.1111 6.78383 13.3223C6.92783 13.3919 6.70223 13.2407 6.67343 13.1855C6.29223 12.7629 5.96271 12.2965 5.69183 11.7959C5.64383 11.7047 5.56943 11.5391 5.70863 11.4911C5.84543 11.4215 5.98463 11.5151 6.05423 11.6351C6.32543 11.9783 6.52703 12.3863 6.86543 12.6719C6.57743 12.1127 6.26783 11.5199 6.26063 10.8767C6.26783 10.7519 6.27503 10.5647 6.44543 10.5671C6.58943 10.5455 6.56543 10.7279 6.61343 10.8143C6.75263 11.2895 6.81263 11.8031 7.09343 12.2207C7.03343 11.8703 6.93983 11.5079 7.00223 11.1503C7.01663 11.0303 7.14623 10.9967 7.23503 11.0687C7.30463 11.2367 7.31903 11.4503 7.38143 11.6327C7.75548 12.8751 8.54303 13.9523 9.61343 14.6855C10.4899 15.2853 11.5126 15.6361 12.5726 15.7007C12.6686 15.7103 12.7646 15.7127 12.8582 15.7175M16.1318 17.9039C15.959 18.0095 15.8246 17.8223 15.6806 17.7671C15.575 17.8247 15.5654 18.0119 15.4694 18.1031C15.3542 18.2351 15.2102 18.0647 15.2222 17.9351C15.083 18.0527 15.0134 18.3191 14.7902 18.2807C14.6822 18.1943 14.603 18.0119 14.5214 18.2207C14.4566 18.3215 14.2814 18.4655 14.1878 18.3119C14.159 18.1775 14.0918 18.0191 14.0198 18.2327C13.967 18.3863 13.8038 18.4967 13.6502 18.4295C13.5638 18.3599 13.7174 18.1007 13.6094 18.1175C13.4462 18.2279 13.3502 18.4943 13.1222 18.4727C13.0334 18.3767 13.1774 18.2063 13.079 18.0959C12.9662 18.2423 12.839 18.4583 12.6398 18.4727C12.5438 18.3959 12.6446 18.1727 12.5822 18.1415C12.3806 18.2615 12.1646 18.4799 11.9102 18.4127C12.0086 18.0287 12.4262 17.8967 12.7742 17.8679C13.3766 17.7935 14.0102 17.9303 14.591 17.7119C14.6846 17.6543 14.9102 17.5751 14.831 17.4431C14.759 17.3375 15.0158 17.3783 15.0398 17.2559C15.0254 17.1023 15.1598 17.1239 15.2894 17.1119C15.875 17.0855 16.4534 17.2079 17.0366 17.2295C17.0798 17.5127 16.7654 17.7119 16.5086 17.6255C16.3886 17.6447 16.2086 17.3471 16.2446 17.5631C16.2206 17.6783 16.235 17.8271 16.1318 17.9039ZM11.1542 17.3231C11.2886 17.4455 11.3846 17.2991 11.5118 17.2439C11.9272 17.0813 12.3175 16.8607 12.671 16.5887C12.8918 16.4063 13.0838 16.1687 13.3814 16.1087C13.9622 15.9335 14.579 15.9551 15.1598 15.7919C15.6038 15.1871 16.355 14.9687 16.9862 14.6207C17.1278 14.5775 17.183 14.4599 17.2262 14.3327C17.4662 13.9511 17.795 13.6151 18.1838 13.3847C18.3673 13.2764 18.5836 13.2372 18.7934 13.2743C18.7645 13.5192 18.6477 13.7452 18.4646 13.9103C18.6062 13.9079 18.7286 13.8191 18.8678 13.8239C18.9158 14.0783 18.6422 14.2103 18.4958 14.3687C18.5774 14.3879 18.8894 14.4119 18.719 14.4935C18.503 14.6423 18.2558 14.7455 18.0566 14.9207C18.2414 14.9543 18.263 14.9927 18.0758 15.0599C17.9726 15.1271 17.7782 15.1511 17.759 15.2855C17.8982 15.3719 17.6966 15.4535 17.6174 15.4823C17.4686 15.5183 17.3102 15.5831 17.5094 15.6983C17.435 15.8111 17.2718 15.8351 17.1398 15.8231C17.1806 15.9527 17.2382 16.0967 17.0726 16.1543C16.7012 16.448 16.2562 16.634 15.7862 16.6919C16.3742 16.7351 16.9814 16.6271 17.483 16.3079C17.5502 16.2287 17.8982 16.1423 17.7038 16.0775C17.6126 16.0391 17.4158 15.9959 17.4014 15.9263C17.675 15.7583 18.0182 15.8183 18.311 15.7199C18.3182 15.6239 18.0878 15.6503 18.0014 15.6287C17.7974 15.6119 17.8094 15.5591 18.0062 15.5399C18.2558 15.4727 18.539 15.4607 18.7502 15.2999C18.5798 15.2183 18.3638 15.2879 18.1814 15.2231C18.491 15.0887 18.8558 15.0743 19.1342 14.8703C19.2614 14.7287 18.971 14.7743 18.887 14.7767C18.7166 14.8079 18.6374 14.7239 18.8318 14.6543C19.1654 14.4071 19.5854 14.2487 19.8206 13.8935C19.8758 13.8143 19.9502 13.5743 19.7726 13.6583C19.5422 13.7375 19.3382 13.9967 19.0718 13.9175C19.595 13.5119 20.0894 13.0535 20.447 12.4943C20.4662 12.3311 20.2118 12.3143 20.147 12.4415C19.811 12.7631 19.5086 13.1447 19.079 13.3487C19.484 12.9439 19.8356 12.489 20.1254 11.9951C20.1902 11.8511 20.3606 11.6759 20.2694 11.5151C20.1182 11.3903 19.931 11.5055 19.8542 11.6519C19.5926 11.9927 19.3958 12.3887 19.0622 12.6671C19.3526 12.1079 19.6574 11.5103 19.6622 10.8671C19.6622 10.7327 19.6382 10.5359 19.4558 10.5623C19.3118 10.5863 19.3478 10.8023 19.2878 10.9103C19.1582 11.3519 19.0958 11.8295 18.8318 12.2135C18.8918 11.8559 18.995 11.4815 18.9158 11.1215C18.8774 10.9583 18.6158 11.0279 18.6518 11.1887C18.3398 12.7703 17.2766 14.1527 15.8918 14.9519C15.2558 15.3119 14.5478 15.5423 13.823 15.6479C13.631 15.6887 13.4198 15.6647 13.235 15.7319C12.7838 16.0751 12.5126 16.6535 11.9438 16.8335C11.687 16.9607 11.3558 16.9871 11.1734 17.2223C11.1586 17.2538 11.152 17.2885 11.1542 17.3231ZM12.395 17.0759C12.3086 17.0807 12.2246 17.0903 12.1406 17.1167C12.0278 17.1335 11.9198 17.1719 11.8094 17.1887L11.7638 17.1983L11.6894 17.2055C11.6991 17.2458 11.6991 17.2877 11.6894 17.3279C11.6816 17.3461 11.6702 17.3624 11.6558 17.3759C11.6414 17.3951 11.6246 17.4095 11.603 17.4191C11.5835 17.4287 11.5623 17.4344 11.5406 17.4359C11.519 17.4359 11.4974 17.4359 11.4758 17.4263C11.4542 17.4191 11.435 17.4071 11.4158 17.3903L11.3486 17.4023H11.2862L11.219 17.3783C11.1973 17.3698 11.1765 17.3594 11.1566 17.3471C11.075 17.3951 10.9838 17.4407 10.9334 17.5247C10.91 17.5632 10.8968 17.607 10.895 17.6519C10.8902 17.7095 10.9046 17.7671 10.9286 17.8199C10.9382 17.8343 10.9454 17.7647 10.9718 17.7551C11.0174 17.7167 11.075 17.6903 11.1326 17.6759C11.1806 17.6519 11.1734 17.6759 11.1542 17.7143C11.1494 17.7359 11.123 17.8103 11.159 17.7719C11.325 17.7099 11.5003 17.6767 11.6774 17.6735C11.9318 17.6471 12.1862 17.6399 12.4406 17.6375L13.1606 17.6519C13.2758 17.6567 13.391 17.6807 13.5038 17.6615C13.5302 17.6543 13.5734 17.6543 13.5902 17.6375C13.5374 17.6087 13.4774 17.6063 13.4222 17.5991H12.9638C12.8366 17.5871 12.7046 17.5847 12.5846 17.5367C12.551 17.5247 12.5222 17.4935 12.491 17.5271C12.4453 17.5435 12.3978 17.5539 12.3494 17.5583C12.2654 17.5631 12.1814 17.5463 12.1046 17.5151C12.1598 17.4383 12.227 17.3711 12.2894 17.2991L12.1406 17.2679C12.2294 17.2079 12.3086 17.1383 12.395 17.0759Z" fill="#FFEC2D"/>
<path d="M11.519 17.3591C11.5508 17.3591 11.5766 17.3333 11.5766 17.3015C11.5766 17.2697 11.5508 17.2439 11.519 17.2439C11.4872 17.2439 11.4614 17.2697 11.4614 17.3015C11.4614 17.3333 11.4872 17.3591 11.519 17.3591Z" fill="#FFEC2D"/>
<path d="M11.5142 17.3159C11.5275 17.3159 11.5382 17.3052 11.5382 17.2919C11.5382 17.2787 11.5275 17.2679 11.5142 17.2679C11.501 17.2679 11.4902 17.2787 11.4902 17.2919C11.4902 17.3052 11.501 17.3159 11.5142 17.3159Z" fill="#FFEC2D" stroke="#FFEC2D" stroke-width="0.2048"/>
<path d="M2.87994 1.75195C2.87994 1.75195 2.64954 1.55515 2.57034 1.65355C2.44554 1.80955 2.95914 2.58955 2.95914 2.86315C2.95914 3.31435 2.65674 3.43675 2.28714 3.49915C2.03754 3.54235 1.63194 3.48235 1.63194 3.48235C1.70874 3.37915 1.75914 3.34795 1.88634 3.34075C1.74234 3.26875 1.59834 3.10555 1.59834 2.85355C1.59834 2.46715 1.75674 2.30635 1.75674 1.86955C1.75674 1.63195 1.55994 1.31995 1.55994 1.31995C1.91034 1.35595 2.08314 1.67995 1.98474 1.93915C2.01175 1.94452 2.03966 1.94317 2.06603 1.93522C2.09239 1.92727 2.1164 1.91296 2.13594 1.89355C2.15994 1.96555 2.12154 2.04955 2.06634 2.12155C2.10954 2.14555 2.14314 2.13115 2.21034 2.11675C2.20554 2.18875 2.16234 2.27035 2.05194 2.34475C2.36874 2.26315 2.56074 2.48155 2.56074 2.71195C2.56074 2.88715 2.44074 3.01195 2.32074 3.01195C2.28234 3.01195 2.22474 2.99515 2.19354 2.97115C2.16954 3.01915 2.18394 3.08395 2.20554 3.13195C2.11914 3.10795 2.06154 3.05515 2.10234 2.94715C2.03514 2.94235 1.98234 2.91835 1.94634 2.87515C1.98234 2.82715 2.03754 2.80315 2.10234 2.80315C2.05434 2.70235 2.10954 2.64715 2.18874 2.60155C2.18874 2.60155 2.13834 2.80315 2.26554 2.80315C2.32314 2.80315 2.37594 2.78635 2.37594 2.69995C2.37594 2.62555 2.31114 2.52235 2.15994 2.52955C2.01114 2.53675 1.88874 2.63275 1.88874 2.87275C1.88874 3.09355 2.06874 3.20395 2.30394 3.20875C2.51514 3.21835 2.67594 3.10315 2.67594 2.88475C2.67594 2.59195 2.25594 1.92955 2.25594 1.67035C2.25594 1.47595 2.42874 1.36555 2.60154 1.36555C2.82234 1.36555 3.00954 1.58635 3.00954 1.58635L2.87994 1.74955V1.75195Z" fill="#FFEC2D"/>
<path d="M2.92794 7.0104C2.92794 7.4976 2.49114 7.7472 2.14794 7.7472C1.68714 7.7472 1.43994 7.4712 1.43994 7.1088C1.43994 6.9048 1.47834 6.7752 1.57194 6.5808L2.63274 4.38C2.67117 4.28743 2.6876 4.1872 2.68074 4.0872C2.68074 3.8904 2.48874 3.7296 2.28954 3.7272C2.10714 3.72 1.90554 3.8952 1.90554 4.0944C1.90554 4.3368 2.03274 4.4448 2.16234 4.4448C2.32074 4.4448 2.38314 4.38 2.38314 4.2672C2.38314 4.1904 2.34714 4.1568 2.29194 4.1568C2.15514 4.1568 2.19594 4.3392 2.19594 4.3392C2.17788 4.33586 2.16077 4.32857 2.14585 4.31786C2.13093 4.30715 2.11856 4.29327 2.10962 4.27722C2.10068 4.26118 2.09539 4.24335 2.09413 4.22503C2.09287 4.2067 2.09568 4.18832 2.10234 4.1712C2.05097 4.15968 2.00468 4.13191 1.97034 4.092C2.00634 4.056 2.04954 4.0296 2.10234 4.02C2.07114 3.9144 2.11434 3.864 2.20554 3.84C2.18913 3.87608 2.18492 3.91652 2.19354 3.9552C2.33754 3.912 2.56074 3.9792 2.56074 4.2288C2.56074 4.4784 2.38794 4.6872 2.06394 4.6368C2.14074 4.6728 2.17914 4.7472 2.18874 4.8312C2.12874 4.8072 2.06394 4.8072 2.06394 4.8072C2.10234 4.872 2.15514 4.9272 2.15274 5.0616C2.09274 5.0328 2.03514 4.9824 1.96074 5.0136C2.08074 5.2536 1.93194 5.58 1.55274 5.6568C1.69194 5.4936 1.75914 5.3208 1.75914 5.1456C1.75914 4.5816 1.60314 4.488 1.60314 4.0944C1.60561 4.00312 1.62975 3.91373 1.67356 3.83361C1.71738 3.75349 1.77962 3.68493 1.85514 3.6336V3.6408C1.8087 3.63126 1.7648 3.61201 1.72633 3.58429C1.68786 3.55658 1.65569 3.52104 1.63194 3.48C1.8993 3.40631 2.18193 3.40881 2.44794 3.4872C2.53692 3.49979 2.62193 3.53221 2.69671 3.58205C2.77148 3.6319 2.8341 3.69791 2.87994 3.7752C2.92786 3.88454 2.9526 4.00262 2.9526 4.122C2.9526 4.24138 2.92786 4.35946 2.87994 4.4688C2.72874 4.7808 2.02314 6.2832 1.80234 6.7536C1.75434 6.8544 1.72794 6.96 1.72794 7.0752C1.72794 7.3632 1.99194 7.464 2.14074 7.464C2.32074 7.464 2.50554 7.3272 2.50554 7.1568C2.50554 7.0488 2.44554 6.9816 2.36154 6.9816C2.15754 6.9816 2.16954 7.1544 2.21034 7.2648C2.08314 7.2072 2.01114 7.1064 2.03034 7.0008C1.95159 6.98758 1.88012 6.94674 1.82874 6.8856C1.87674 6.8232 1.93914 6.7752 2.03034 6.7728C1.98954 6.6072 2.10234 6.5376 2.21034 6.4992C2.17674 6.6192 2.15274 6.7608 2.36154 6.7608C2.51274 6.7608 2.63034 6.7848 2.69994 6.8856L2.71674 6.2376C2.72634 6.0432 2.45754 6.0456 2.28474 6.1056C2.34954 5.8824 2.48154 5.76 2.78874 5.7912C2.74168 5.7731 2.70151 5.74064 2.67394 5.69842C2.64636 5.6562 2.63279 5.60637 2.63514 5.556C2.63514 5.3736 2.78394 5.172 2.87994 5.112L2.92794 7.008V7.0104Z" fill="#FFEC2D"/>
<path d="M2.92794 8.46958C2.92794 7.98238 2.49114 7.73278 2.14794 7.73278C1.68714 7.73278 1.43994 8.00878 1.43994 8.37118C1.43994 8.57518 1.47834 8.70478 1.57194 8.89918L2.63274 11.1C2.67117 11.1926 2.6876 11.2928 2.68074 11.3928C2.68074 11.5896 2.48874 11.7504 2.28954 11.7528C2.10714 11.76 1.90554 11.5848 1.90554 11.3856C1.90554 11.1432 2.03274 11.0352 2.16234 11.0352C2.32074 11.0352 2.38314 11.1 2.38314 11.2128C2.38314 11.2896 2.34714 11.3232 2.29194 11.3232C2.15514 11.3232 2.19594 11.1408 2.19594 11.1408C2.17788 11.1441 2.16077 11.1514 2.14585 11.1621C2.13093 11.1728 2.11856 11.1867 2.10962 11.2028C2.10068 11.2188 2.09539 11.2366 2.09413 11.255C2.09287 11.2733 2.09568 11.2917 2.10234 11.3088C2.05097 11.3203 2.00468 11.3481 1.97034 11.388C2.00634 11.424 2.04954 11.4504 2.10234 11.46C2.07114 11.5656 2.11434 11.616 2.20554 11.64C2.18913 11.6039 2.18492 11.5635 2.19354 11.5248C2.33754 11.568 2.56074 11.5008 2.56074 11.2512C2.56074 11.0016 2.38794 10.7928 2.06394 10.8432C2.14074 10.8072 2.17914 10.7328 2.18874 10.6488C2.12874 10.6728 2.06394 10.6728 2.06394 10.6728C2.10234 10.608 2.15514 10.5528 2.15274 10.4184C2.09274 10.4472 2.03514 10.4976 1.96074 10.4664C2.08074 10.2264 1.93194 9.89998 1.55274 9.82318C1.69194 9.98638 1.75914 10.1592 1.75914 10.3344C1.75914 10.8984 1.60314 10.992 1.60314 11.3856C1.60561 11.4769 1.62975 11.5663 1.67356 11.6464C1.71738 11.7265 1.77962 11.795 1.85514 11.8464V11.8392C1.8087 11.8487 1.7648 11.868 1.72633 11.8957C1.68786 11.9234 1.65569 11.9589 1.63194 12C1.8993 12.0737 2.18193 12.0712 2.44794 11.9928C2.53692 11.9802 2.62193 11.9478 2.69671 11.8979C2.77148 11.8481 2.8341 11.7821 2.87994 11.7048C2.92786 11.5954 2.9526 11.4774 2.9526 11.358C2.9526 11.2386 2.92786 11.1205 2.87994 11.0112C2.72874 10.6992 2.02314 9.19678 1.80234 8.72638C1.75434 8.62558 1.72794 8.51998 1.72794 8.40478C1.72794 8.11678 1.99194 8.01598 2.14074 8.01598C2.32074 8.01598 2.50554 8.15278 2.50554 8.32318C2.50554 8.43118 2.44554 8.49838 2.36154 8.49838C2.15754 8.49838 2.16954 8.32558 2.21034 8.21518C2.08314 8.27278 2.01114 8.37358 2.03034 8.47918C1.95159 8.4924 1.88012 8.53324 1.82874 8.59438C1.87674 8.65678 1.93914 8.70478 2.03034 8.70718C1.98954 8.87278 2.10234 8.94238 2.21034 8.98078C2.17674 8.86078 2.15274 8.71918 2.36154 8.71918C2.51274 8.71918 2.63034 8.69518 2.69994 8.59438L2.71674 9.24238C2.72634 9.43678 2.45754 9.43438 2.28474 9.37438C2.34954 9.59758 2.48154 9.71998 2.78874 9.68878C2.74168 9.70688 2.70151 9.73934 2.67394 9.78156C2.64636 9.82378 2.63279 9.87361 2.63514 9.92398C2.63514 10.1064 2.78394 10.308 2.87994 10.368L2.92794 8.47198V8.46958Z" fill="#FFEC2D"/>
<path d="M2.87995 1.75195C2.87995 1.75195 3.11035 1.55515 3.18955 1.65355C3.31435 1.80955 2.80075 2.58955 2.80075 2.86315C2.80075 3.31435 3.10315 3.43675 3.47275 3.49915C3.72235 3.54235 4.12795 3.48235 4.12795 3.48235C4.05115 3.37915 4.00075 3.34795 3.87355 3.34075C4.01755 3.26875 4.16155 3.10555 4.16155 2.85355C4.16155 2.46715 4.00315 2.30635 4.00315 1.86955C4.00315 1.63195 4.19995 1.31995 4.19995 1.31995C3.84955 1.35595 3.67675 1.67995 3.77515 1.93915C3.74814 1.94452 3.72023 1.94317 3.69386 1.93522C3.66749 1.92727 3.64349 1.91296 3.62395 1.89355C3.59995 1.96555 3.63835 2.04955 3.69355 2.12155C3.65035 2.14555 3.61675 2.13115 3.54955 2.11675C3.55435 2.18875 3.59755 2.27035 3.70795 2.34475C3.39115 2.26315 3.19915 2.48155 3.19915 2.71195C3.19915 2.88715 3.31915 3.01195 3.43915 3.01195C3.47755 3.01195 3.53515 2.99515 3.56635 2.97115C3.59035 3.01915 3.57595 3.08395 3.55435 3.13195C3.64075 3.10795 3.69835 3.05515 3.65755 2.94715C3.72475 2.94235 3.77755 2.91835 3.81355 2.87515C3.77755 2.82715 3.72235 2.80315 3.65755 2.80315C3.70555 2.70235 3.65035 2.64715 3.57115 2.60155C3.57115 2.60155 3.62155 2.80315 3.49435 2.80315C3.43675 2.80315 3.38395 2.78635 3.38395 2.69995C3.38395 2.62555 3.44875 2.52235 3.59995 2.52955C3.74875 2.53675 3.87115 2.63275 3.87115 2.87275C3.87115 3.09355 3.69115 3.20395 3.45595 3.20875C3.24475 3.21835 3.08395 3.10315 3.08395 2.88475C3.08395 2.59195 3.50395 1.92955 3.50395 1.67035C3.50395 1.47595 3.33115 1.36555 3.15835 1.36555C2.93755 1.36555 2.75035 1.58635 2.75035 1.58635L2.87995 1.74955V1.75195Z" fill="#FFEC2D"/>
<path d="M2.83195 7.0104C2.83195 7.4976 3.26875 7.7472 3.61195 7.7472C4.07275 7.7472 4.31995 7.4712 4.31995 7.1088C4.31995 6.9048 4.28155 6.7752 4.18795 6.5808L3.12715 4.38C3.08872 4.28743 3.07229 4.1872 3.07915 4.0872C3.07915 3.8904 3.27115 3.7296 3.47035 3.7272C3.65275 3.72 3.85435 3.8952 3.85435 4.0944C3.85435 4.3368 3.72715 4.4448 3.59755 4.4448C3.43915 4.4448 3.37675 4.38 3.37675 4.2672C3.37675 4.1904 3.41275 4.1568 3.46795 4.1568C3.60475 4.1568 3.56395 4.3392 3.56395 4.3392C3.58201 4.33586 3.59911 4.32857 3.61404 4.31786C3.62896 4.30715 3.64133 4.29327 3.65027 4.27722C3.65921 4.26118 3.6645 4.24335 3.66576 4.22503C3.66702 4.2067 3.66421 4.18832 3.65755 4.1712C3.70892 4.15968 3.75521 4.13191 3.78955 4.092C3.75355 4.056 3.71035 4.0296 3.65755 4.02C3.68875 3.9144 3.64555 3.864 3.55435 3.84C3.57076 3.87608 3.57497 3.91652 3.56635 3.9552C3.42235 3.912 3.19915 3.9792 3.19915 4.2288C3.19915 4.4784 3.37195 4.6872 3.69595 4.6368C3.61915 4.6728 3.58075 4.7472 3.57115 4.8312C3.63115 4.8072 3.69595 4.8072 3.69595 4.8072C3.65755 4.872 3.60475 4.9272 3.60715 5.0616C3.66715 5.0328 3.72475 4.9824 3.79915 5.0136C3.67915 5.2536 3.82795 5.58 4.20715 5.6568C4.06795 5.4936 4.00075 5.3208 4.00075 5.1456C4.00075 4.5816 4.15675 4.488 4.15675 4.0944C4.15428 4.00312 4.13014 3.91373 4.08632 3.83361C4.04251 3.75349 3.98027 3.68493 3.90475 3.6336V3.6408C3.95119 3.63126 3.99509 3.61201 4.03356 3.58429C4.07203 3.55658 4.10419 3.52104 4.12795 3.48C3.86059 3.40631 3.57796 3.40881 3.31195 3.4872C3.22297 3.49979 3.13795 3.53221 3.06318 3.58205C2.98841 3.6319 2.92579 3.69791 2.87995 3.7752C2.83203 3.88454 2.80729 4.00262 2.80729 4.122C2.80729 4.24138 2.83203 4.35946 2.87995 4.4688C3.03115 4.7808 3.73675 6.2832 3.95755 6.7536C4.00555 6.8544 4.03195 6.96 4.03195 7.0752C4.03195 7.3632 3.76795 7.464 3.61915 7.464C3.43915 7.464 3.25435 7.3272 3.25435 7.1568C3.25435 7.0488 3.31435 6.9816 3.39835 6.9816C3.60235 6.9816 3.59035 7.1544 3.54955 7.2648C3.67675 7.2072 3.74875 7.1064 3.72955 7.0008C3.8083 6.98758 3.87977 6.94674 3.93115 6.8856C3.88315 6.8232 3.82075 6.7752 3.72955 6.7728C3.77035 6.6072 3.65755 6.5376 3.54955 6.4992C3.58315 6.6192 3.60715 6.7608 3.39835 6.7608C3.24715 6.7608 3.12955 6.7848 3.05995 6.8856L3.04315 6.2376C3.03355 6.0432 3.30235 6.0456 3.47515 6.1056C3.41035 5.8824 3.27835 5.76 2.97115 5.7912C3.01821 5.7731 3.05838 5.74064 3.08595 5.69842C3.11352 5.6562 3.1271 5.60637 3.12475 5.556C3.12475 5.3736 2.97595 5.172 2.87995 5.112L2.83195 7.008V7.0104Z" fill="#FFEC2D"/>
<path d="M2.83195 8.46958C2.83195 7.98238 3.26875 7.73278 3.61195 7.73278C4.07275 7.73278 4.31995 8.00878 4.31995 8.37118C4.31995 8.57518 4.28155 8.70478 4.18795 8.89918L3.12715 11.1C3.08872 11.1926 3.07229 11.2928 3.07915 11.3928C3.07915 11.5896 3.27115 11.7504 3.47035 11.7528C3.65275 11.76 3.85435 11.5848 3.85435 11.3856C3.85435 11.1432 3.72715 11.0352 3.59755 11.0352C3.43915 11.0352 3.37675 11.1 3.37675 11.2128C3.37675 11.2896 3.41275 11.3232 3.46795 11.3232C3.60475 11.3232 3.56395 11.1408 3.56395 11.1408C3.58201 11.1441 3.59911 11.1514 3.61404 11.1621C3.62896 11.1728 3.64133 11.1867 3.65027 11.2028C3.65921 11.2188 3.6645 11.2366 3.66576 11.255C3.66702 11.2733 3.66421 11.2917 3.65755 11.3088C3.70892 11.3203 3.75521 11.3481 3.78955 11.388C3.75355 11.424 3.71035 11.4504 3.65755 11.46C3.68875 11.5656 3.64555 11.616 3.55435 11.64C3.57076 11.6039 3.57497 11.5635 3.56635 11.5248C3.42235 11.568 3.19915 11.5008 3.19915 11.2512C3.19915 11.0016 3.37195 10.7928 3.69595 10.8432C3.61915 10.8072 3.58075 10.7328 3.57115 10.6488C3.63115 10.6728 3.69595 10.6728 3.69595 10.6728C3.65755 10.608 3.60475 10.5528 3.60715 10.4184C3.66715 10.4472 3.72475 10.4976 3.79915 10.4664C3.67915 10.2264 3.82795 9.89998 4.20715 9.82318C4.06795 9.98638 4.00075 10.1592 4.00075 10.3344C4.00075 10.8984 4.15675 10.992 4.15675 11.3856C4.15428 11.4769 4.13014 11.5663 4.08632 11.6464C4.04251 11.7265 3.98027 11.795 3.90475 11.8464V11.8392C3.95119 11.8487 3.99509 11.868 4.03356 11.8957C4.07203 11.9234 4.10419 11.9589 4.12795 12C3.86059 12.0737 3.57796 12.0712 3.31195 11.9928C3.22297 11.9802 3.13795 11.9478 3.06318 11.8979C2.98841 11.8481 2.92579 11.7821 2.87995 11.7048C2.83203 11.5954 2.80729 11.4774 2.80729 11.358C2.80729 11.2386 2.83203 11.1205 2.87995 11.0112C3.03115 10.6992 3.73675 9.19678 3.95755 8.72638C4.00555 8.62558 4.03195 8.51998 4.03195 8.40478C4.03195 8.11678 3.76795 8.01598 3.61915 8.01598C3.43915 8.01598 3.25435 8.15278 3.25435 8.32318C3.25435 8.43118 3.31435 8.49838 3.39835 8.49838C3.60235 8.49838 3.59035 8.32558 3.54955 8.21518C3.67675 8.27278 3.74875 8.37358 3.72955 8.47918C3.8083 8.4924 3.87977 8.53324 3.93115 8.59438C3.88315 8.65678 3.82075 8.70478 3.72955 8.70718C3.77035 8.87278 3.65755 8.94238 3.54955 8.98078C3.58315 8.86078 3.60715 8.71918 3.39835 8.71918C3.24715 8.71918 3.12955 8.69518 3.05995 8.59438L3.04315 9.24238C3.03355 9.43678 3.30235 9.43438 3.47515 9.37438C3.41035 9.59758 3.27835 9.71998 2.97115 9.68878C3.01821 9.70688 3.05838 9.73934 3.08595 9.78156C3.11352 9.82378 3.1271 9.87361 3.12475 9.92398C3.12475 10.1064 2.97595 10.308 2.87995 10.368L2.83195 8.47198V8.46958Z" fill="#FFEC2D"/>
<path d="M2.87994 22.2479C2.87994 22.2479 2.64954 22.4447 2.57034 22.3463C2.44554 22.1903 2.95914 21.4103 2.95914 21.1367C2.95914 20.6855 2.65674 20.5631 2.28714 20.5007C2.03754 20.4575 1.63194 20.5175 1.63194 20.5175C1.70874 20.6207 1.75914 20.6519 1.88634 20.6591C1.74234 20.7311 1.59834 20.8943 1.59834 21.1463C1.59834 21.5327 1.75674 21.6935 1.75674 22.1303C1.75674 22.3679 1.55994 22.6799 1.55994 22.6799C1.91034 22.6439 2.08314 22.3199 1.98474 22.0607C2.01175 22.0554 2.03966 22.0567 2.06603 22.0647C2.09239 22.0726 2.1164 22.0869 2.13594 22.1063C2.15994 22.0343 2.12154 21.9503 2.06634 21.8783C2.10954 21.8543 2.14314 21.8687 2.21034 21.8831C2.20554 21.8111 2.16234 21.7295 2.05194 21.6551C2.36874 21.7367 2.56074 21.5183 2.56074 21.2879C2.56074 21.1127 2.44074 20.9879 2.32074 20.9879C2.28234 20.9879 2.22474 21.0047 2.19354 21.0287C2.16954 20.9807 2.18394 20.9159 2.20554 20.8679C2.11914 20.8919 2.06154 20.9447 2.10234 21.0527C2.03514 21.0575 1.98234 21.0815 1.94634 21.1247C1.98234 21.1727 2.03754 21.1967 2.10234 21.1967C2.05434 21.2975 2.10954 21.3527 2.18874 21.3983C2.18874 21.3983 2.13834 21.1967 2.26554 21.1967C2.32314 21.1967 2.37594 21.2135 2.37594 21.2999C2.37594 21.3743 2.31114 21.4775 2.15994 21.4703C2.01114 21.4631 1.88874 21.3671 1.88874 21.1271C1.88874 20.9063 2.06874 20.7959 2.30394 20.7911C2.51514 20.7815 2.67594 20.8967 2.67594 21.1151C2.67594 21.4079 2.25594 22.0703 2.25594 22.3295C2.25594 22.5239 2.42874 22.6343 2.60154 22.6343C2.82234 22.6343 3.00954 22.4135 3.00954 22.4135L2.87994 22.2503V22.2479Z" fill="#FFEC2D"/>
<path d="M2.92794 16.9895C2.92794 16.5023 2.49114 16.2527 2.14794 16.2527C1.68714 16.2527 1.43994 16.5287 1.43994 16.8911C1.43994 17.0951 1.47834 17.2247 1.57194 17.4191L2.63274 19.6199C2.67117 19.7124 2.6876 19.8127 2.68074 19.9127C2.68074 20.1095 2.48874 20.2703 2.28954 20.2727C2.10714 20.2799 1.90554 20.1047 1.90554 19.9055C1.90554 19.6631 2.03274 19.5551 2.16234 19.5551C2.32074 19.5551 2.38314 19.6199 2.38314 19.7327C2.38314 19.8095 2.34714 19.8431 2.29194 19.8431C2.15514 19.8431 2.19594 19.6607 2.19594 19.6607C2.17788 19.664 2.16077 19.6713 2.14585 19.682C2.13093 19.6927 2.11856 19.7066 2.10962 19.7227C2.10068 19.7387 2.09539 19.7565 2.09413 19.7749C2.09287 19.7932 2.09568 19.8116 2.10234 19.8287C2.05097 19.8402 2.00468 19.868 1.97034 19.9079C2.00634 19.9439 2.04954 19.9703 2.10234 19.9799C2.07114 20.0855 2.11434 20.1359 2.20554 20.1599C2.18913 20.1238 2.18492 20.0834 2.19354 20.0447C2.33754 20.0879 2.56074 20.0207 2.56074 19.7711C2.56074 19.5215 2.38794 19.3127 2.06394 19.3631C2.14074 19.3271 2.17914 19.2527 2.18874 19.1687C2.12874 19.1927 2.06394 19.1927 2.06394 19.1927C2.10234 19.1279 2.15514 19.0727 2.15274 18.9383C2.09274 18.9671 2.03514 19.0175 1.96074 18.9863C2.08074 18.7463 1.93194 18.4199 1.55274 18.3431C1.69194 18.5063 1.75914 18.6791 1.75914 18.8543C1.75914 19.4183 1.60314 19.5119 1.60314 19.9055C1.60561 19.9968 1.62975 20.0861 1.67356 20.1663C1.71738 20.2464 1.77962 20.3149 1.85514 20.3663V20.3591C1.8087 20.3686 1.7648 20.3879 1.72633 20.4156C1.68786 20.4433 1.65569 20.4788 1.63194 20.5199C1.8993 20.5936 2.18193 20.5911 2.44794 20.5127C2.53692 20.5001 2.62193 20.4677 2.69671 20.4178C2.77148 20.368 2.8341 20.302 2.87994 20.2247C2.92786 20.1153 2.9526 19.9973 2.9526 19.8779C2.9526 19.7585 2.92786 19.6404 2.87994 19.5311C2.72874 19.2191 2.02314 17.7167 1.80234 17.2463C1.75434 17.1455 1.72794 17.0399 1.72794 16.9247C1.72794 16.6367 1.99194 16.5359 2.14074 16.5359C2.32074 16.5359 2.50554 16.6727 2.50554 16.8431C2.50554 16.9511 2.44554 17.0183 2.36154 17.0183C2.15754 17.0183 2.16954 16.8455 2.21034 16.7351C2.08314 16.7927 2.01114 16.8935 2.03034 16.9991C1.95159 17.0123 1.88012 17.0531 1.82874 17.1143C1.87674 17.1767 1.93914 17.2247 2.03034 17.2271C1.98954 17.3927 2.10234 17.4623 2.21034 17.5007C2.17674 17.3807 2.15274 17.2391 2.36154 17.2391C2.51274 17.2391 2.63034 17.2151 2.69994 17.1143L2.71674 17.7623C2.72634 17.9567 2.45754 17.9543 2.28474 17.8943C2.34954 18.1175 2.48154 18.2399 2.78874 18.2087C2.74168 18.2268 2.70151 18.2592 2.67394 18.3015C2.64636 18.3437 2.63279 18.3935 2.63514 18.4439C2.63514 18.6263 2.78394 18.8279 2.87994 18.8879L2.92794 16.9919V16.9895Z" fill="#FFEC2D"/>
<path d="M2.92794 15.5303C2.92794 16.0175 2.49114 16.2671 2.14794 16.2671C1.68714 16.2671 1.43994 15.9911 1.43994 15.6287C1.43994 15.4247 1.47834 15.2951 1.57194 15.1007L2.63274 12.8999C2.67117 12.8073 2.6876 12.7071 2.68074 12.6071C2.68074 12.4103 2.48874 12.2495 2.28954 12.2471C2.10714 12.2399 1.90554 12.4151 1.90554 12.6143C1.90554 12.8567 2.03274 12.9647 2.16234 12.9647C2.32074 12.9647 2.38314 12.8999 2.38314 12.7871C2.38314 12.7103 2.34714 12.6767 2.29194 12.6767C2.15514 12.6767 2.19594 12.8591 2.19594 12.8591C2.17788 12.8558 2.16077 12.8485 2.14585 12.8378C2.13093 12.827 2.11856 12.8132 2.10962 12.7971C2.10068 12.7811 2.09539 12.7633 2.09413 12.7449C2.09287 12.7266 2.09568 12.7082 2.10234 12.6911C2.05097 12.6796 2.00468 12.6518 1.97034 12.6119C2.00634 12.5759 2.04954 12.5495 2.10234 12.5399C2.07114 12.4343 2.11434 12.3839 2.20554 12.3599C2.18913 12.396 2.18492 12.4364 2.19354 12.4751C2.33754 12.4319 2.56074 12.4991 2.56074 12.7487C2.56074 12.9983 2.38794 13.2071 2.06394 13.1567C2.14074 13.1927 2.17914 13.2671 2.18874 13.3511C2.12874 13.3271 2.06394 13.3271 2.06394 13.3271C2.10234 13.3919 2.15514 13.4471 2.15274 13.5815C2.09274 13.5527 2.03514 13.5023 1.96074 13.5335C2.08074 13.7735 1.93194 14.0999 1.55274 14.1767C1.69194 14.0135 1.75914 13.8407 1.75914 13.6655C1.75914 13.1015 1.60314 13.0079 1.60314 12.6143C1.60561 12.523 1.62975 12.4336 1.67356 12.3535C1.71738 12.2734 1.77962 12.2048 1.85514 12.1535V12.1607C1.8087 12.1512 1.7648 12.1319 1.72633 12.1042C1.68786 12.0765 1.65569 12.0409 1.63194 11.9999C1.8993 11.9262 2.18193 11.9287 2.44794 12.0071C2.53692 12.0197 2.62193 12.0521 2.69671 12.102C2.77148 12.1518 2.8341 12.2178 2.87994 12.2951C2.92786 12.4044 2.9526 12.5225 2.9526 12.6419C2.9526 12.7613 2.92786 12.8794 2.87994 12.9887C2.72874 13.3007 2.02314 14.8031 1.80234 15.2735C1.75434 15.3743 1.72794 15.4799 1.72794 15.5951C1.72794 15.8831 1.99194 15.9839 2.14074 15.9839C2.32074 15.9839 2.50554 15.8471 2.50554 15.6767C2.50554 15.5687 2.44554 15.5015 2.36154 15.5015C2.15754 15.5015 2.16954 15.6743 2.21034 15.7847C2.08314 15.7271 2.01114 15.6263 2.03034 15.5207C1.95159 15.5075 1.88012 15.4666 1.82874 15.4055C1.87674 15.3431 1.93914 15.2951 2.03034 15.2927C1.98954 15.1271 2.10234 15.0575 2.21034 15.0191C2.17674 15.1391 2.15274 15.2807 2.36154 15.2807C2.51274 15.2807 2.63034 15.3047 2.69994 15.4055L2.71674 14.7575C2.72634 14.5631 2.45754 14.5655 2.28474 14.6255C2.34954 14.4023 2.48154 14.2799 2.78874 14.3111C2.74168 14.293 2.70151 14.2605 2.67394 14.2183C2.64636 14.1761 2.63279 14.1263 2.63514 14.0759C2.63514 13.8935 2.78394 13.6919 2.87994 13.6319L2.92794 15.5279V15.5303Z" fill="#FFEC2D"/>
<path d="M2.87995 22.2479C2.87995 22.2479 3.11035 22.4447 3.18955 22.3463C3.31435 22.1903 2.80075 21.4103 2.80075 21.1367C2.80075 20.6855 3.10315 20.5631 3.47275 20.5007C3.72235 20.4575 4.12795 20.5175 4.12795 20.5175C4.05115 20.6207 4.00075 20.6519 3.87355 20.6591C4.01755 20.7311 4.16155 20.8943 4.16155 21.1463C4.16155 21.5327 4.00315 21.6935 4.00315 22.1303C4.00315 22.3679 4.19995 22.6799 4.19995 22.6799C3.84955 22.6439 3.67675 22.3199 3.77515 22.0607C3.74814 22.0554 3.72023 22.0567 3.69386 22.0647C3.66749 22.0726 3.64349 22.0869 3.62395 22.1063C3.59995 22.0343 3.63835 21.9503 3.69355 21.8783C3.65035 21.8543 3.61675 21.8687 3.54955 21.8831C3.55435 21.8111 3.59755 21.7295 3.70795 21.6551C3.39115 21.7367 3.19915 21.5183 3.19915 21.2879C3.19915 21.1127 3.31915 20.9879 3.43915 20.9879C3.47755 20.9879 3.53515 21.0047 3.56635 21.0287C3.59035 20.9807 3.57595 20.9159 3.55435 20.8679C3.64075 20.8919 3.69835 20.9447 3.65755 21.0527C3.72475 21.0575 3.77755 21.0815 3.81355 21.1247C3.77755 21.1727 3.72235 21.1967 3.65755 21.1967C3.70555 21.2975 3.65035 21.3527 3.57115 21.3983C3.57115 21.3983 3.62155 21.1967 3.49435 21.1967C3.43675 21.1967 3.38395 21.2135 3.38395 21.2999C3.38395 21.3743 3.44875 21.4775 3.59995 21.4703C3.74875 21.4631 3.87115 21.3671 3.87115 21.1271C3.87115 20.9063 3.69115 20.7959 3.45595 20.7911C3.24475 20.7815 3.08395 20.8967 3.08395 21.1151C3.08395 21.4079 3.50395 22.0703 3.50395 22.3295C3.50395 22.5239 3.33115 22.6343 3.15835 22.6343C2.93755 22.6343 2.75035 22.4135 2.75035 22.4135L2.87995 22.2503V22.2479Z" fill="#FFEC2D"/>
<path d="M2.83195 16.9895C2.83195 16.5023 3.26875 16.2527 3.61195 16.2527C4.07275 16.2527 4.31995 16.5287 4.31995 16.8911C4.31995 17.0951 4.28155 17.2247 4.18795 17.4191L3.12715 19.6199C3.08872 19.7124 3.07229 19.8127 3.07915 19.9127C3.07915 20.1095 3.27115 20.2703 3.47035 20.2727C3.65275 20.2799 3.85435 20.1047 3.85435 19.9055C3.85435 19.6631 3.72715 19.5551 3.59755 19.5551C3.43915 19.5551 3.37675 19.6199 3.37675 19.7327C3.37675 19.8095 3.41275 19.8431 3.46795 19.8431C3.60475 19.8431 3.56395 19.6607 3.56395 19.6607C3.58201 19.664 3.59911 19.6713 3.61404 19.682C3.62896 19.6927 3.64133 19.7066 3.65027 19.7227C3.65921 19.7387 3.6645 19.7565 3.66576 19.7749C3.66702 19.7932 3.66421 19.8116 3.65755 19.8287C3.70892 19.8402 3.75521 19.868 3.78955 19.9079C3.75355 19.9439 3.71035 19.9703 3.65755 19.9799C3.68875 20.0855 3.64555 20.1359 3.55435 20.1599C3.57076 20.1238 3.57497 20.0834 3.56635 20.0447C3.42235 20.0879 3.19915 20.0207 3.19915 19.7711C3.19915 19.5215 3.37195 19.3127 3.69595 19.3631C3.61915 19.3271 3.58075 19.2527 3.57115 19.1687C3.63115 19.1927 3.69595 19.1927 3.69595 19.1927C3.65755 19.1279 3.60475 19.0727 3.60715 18.9383C3.66715 18.9671 3.72475 19.0175 3.79915 18.9863C3.67915 18.7463 3.82795 18.4199 4.20715 18.3431C4.06795 18.5063 4.00075 18.6791 4.00075 18.8543C4.00075 19.4183 4.15675 19.5119 4.15675 19.9055C4.15428 19.9968 4.13014 20.0861 4.08632 20.1663C4.04251 20.2464 3.98027 20.3149 3.90475 20.3663V20.3591C3.95119 20.3686 3.99509 20.3879 4.03356 20.4156C4.07203 20.4433 4.10419 20.4788 4.12795 20.5199C3.86059 20.5936 3.57796 20.5911 3.31195 20.5127C3.22297 20.5001 3.13795 20.4677 3.06318 20.4178C2.98841 20.368 2.92579 20.302 2.87995 20.2247C2.83203 20.1153 2.80729 19.9973 2.80729 19.8779C2.80729 19.7585 2.83203 19.6404 2.87995 19.5311C3.03115 19.2191 3.73675 17.7167 3.95755 17.2463C4.00555 17.1455 4.03195 17.0399 4.03195 16.9247C4.03195 16.6367 3.76795 16.5359 3.61915 16.5359C3.43915 16.5359 3.25435 16.6727 3.25435 16.8431C3.25435 16.9511 3.31435 17.0183 3.39835 17.0183C3.60235 17.0183 3.59035 16.8455 3.54955 16.7351C3.67675 16.7927 3.74875 16.8935 3.72955 16.9991C3.8083 17.0123 3.87977 17.0531 3.93115 17.1143C3.88315 17.1767 3.82075 17.2247 3.72955 17.2271C3.77035 17.3927 3.65755 17.4623 3.54955 17.5007C3.58315 17.3807 3.60715 17.2391 3.39835 17.2391C3.24715 17.2391 3.12955 17.2151 3.05995 17.1143L3.04315 17.7623C3.03355 17.9567 3.30235 17.9543 3.47515 17.8943C3.41035 18.1175 3.27835 18.2399 2.97115 18.2087C3.01821 18.2268 3.05838 18.2592 3.08595 18.3015C3.11352 18.3437 3.1271 18.3935 3.12475 18.4439C3.12475 18.6263 2.97595 18.8279 2.87995 18.8879L2.83195 16.9919V16.9895Z" fill="#FFEC2D"/>
<path d="M2.83195 15.5303C2.83195 16.0175 3.26875 16.2671 3.61195 16.2671C4.07275 16.2671 4.31995 15.9911 4.31995 15.6287C4.31995 15.4247 4.28155 15.2951 4.18795 15.1007L3.12715 12.8999C3.08872 12.8073 3.07229 12.7071 3.07915 12.6071C3.07915 12.4103 3.27115 12.2495 3.47035 12.2471C3.65275 12.2399 3.85435 12.4151 3.85435 12.6143C3.85435 12.8567 3.72715 12.9647 3.59755 12.9647C3.43915 12.9647 3.37675 12.8999 3.37675 12.7871C3.37675 12.7103 3.41275 12.6767 3.46795 12.6767C3.60475 12.6767 3.56395 12.8591 3.56395 12.8591C3.58201 12.8558 3.59911 12.8485 3.61404 12.8378C3.62896 12.827 3.64133 12.8132 3.65027 12.7971C3.65921 12.7811 3.6645 12.7633 3.66576 12.7449C3.66702 12.7266 3.66421 12.7082 3.65755 12.6911C3.70892 12.6796 3.75521 12.6518 3.78955 12.6119C3.75355 12.5759 3.71035 12.5495 3.65755 12.5399C3.68875 12.4343 3.64555 12.3839 3.55435 12.3599C3.57076 12.396 3.57497 12.4364 3.56635 12.4751C3.42235 12.4319 3.19915 12.4991 3.19915 12.7487C3.19915 12.9983 3.37195 13.2071 3.69595 13.1567C3.61915 13.1927 3.58075 13.2671 3.57115 13.3511C3.63115 13.3271 3.69595 13.3271 3.69595 13.3271C3.65755 13.3919 3.60475 13.4471 3.60715 13.5815C3.66715 13.5527 3.72475 13.5023 3.79915 13.5335C3.67915 13.7735 3.82795 14.0999 4.20715 14.1767C4.06795 14.0135 4.00075 13.8407 4.00075 13.6655C4.00075 13.1015 4.15675 13.0079 4.15675 12.6143C4.15428 12.523 4.13014 12.4336 4.08632 12.3535C4.04251 12.2734 3.98027 12.2048 3.90475 12.1535V12.1607C3.95119 12.1512 3.99509 12.1319 4.03356 12.1042C4.07203 12.0765 4.10419 12.0409 4.12795 11.9999C3.86059 11.9262 3.57796 11.9287 3.31195 12.0071C3.22297 12.0197 3.13795 12.0521 3.06318 12.102C2.98841 12.1518 2.92579 12.2178 2.87995 12.2951C2.83203 12.4044 2.80729 12.5225 2.80729 12.6419C2.80729 12.7613 2.83203 12.8794 2.87995 12.9887C3.03115 13.3007 3.73675 14.8031 3.95755 15.2735C4.00555 15.3743 4.03195 15.4799 4.03195 15.5951C4.03195 15.8831 3.76795 15.9839 3.61915 15.9839C3.43915 15.9839 3.25435 15.8471 3.25435 15.6767C3.25435 15.5687 3.31435 15.5015 3.39835 15.5015C3.60235 15.5015 3.59035 15.6743 3.54955 15.7847C3.67675 15.7271 3.74875 15.6263 3.72955 15.5207C3.8083 15.5075 3.87977 15.4666 3.93115 15.4055C3.88315 15.3431 3.82075 15.2951 3.72955 15.2927C3.77035 15.1271 3.65755 15.0575 3.54955 15.0191C3.58315 15.1391 3.60715 15.2807 3.39835 15.2807C3.24715 15.2807 3.12955 15.3047 3.05995 15.4055L3.04315 14.7575C3.03355 14.5631 3.30235 14.5655 3.47515 14.6255C3.41035 14.4023 3.27835 14.2799 2.97115 14.3111C3.01821 14.293 3.05838 14.2605 3.08595 14.2183C3.11352 14.1761 3.1271 14.1263 3.12475 14.0759C3.12475 13.8935 2.97595 13.6919 2.87995 13.6319L2.83195 15.5279V15.5303Z" fill="#FFEC2D"/>
</g>
<defs>
<clipPath id="clip0_26_565">
<rect width="24" height="24" rx="6" fill="white"/>
</clipPath>
</defs>
</svg>
